<?xml version="1.0" standalone="no"?>
<!DOCTYPE svg PUBLIC "-//W3C//DTD SVG 20010904//EN"
 "http://www.w3.org/TR/2001/REC-SVG-20010904/DTD/svg10.dtd">
<svg version="1.0" xmlns="http://www.w3.org/2000/svg"
 width="360.000000pt" height="360.000000pt" viewBox="0 0 360.000000 360.000000"
 preserveAspectRatio="xMidYMid meet">

<g transform="translate(0.000000,360.000000) scale(0.100000,-0.100000)"
fill="#000000" stroke="none">
<path d="M1698 2989 c-20 -4 -227 -102 -460 -217 -454 -224 -474 -238 -526
-336 l-27 -51 0 -555 0 -555 33 -67 c21 -43 48 -80 75 -101 62 -51 822 -467
892 -490 71 -22 198 -19 261 8 21 9 218 115 439 237 425 235 459 260 506 354
l24 49 0 555 0 555 -26 55 c-49 104 -67 116 -514 336 -225 111 -434 209 -464
218 -58 17 -153 19 -213 5z m485 -230 c535 -263 532 -261 532 -289 0 -23 -32
-41 -385 -217 -212 -106 -409 -200 -439 -209 -38 -11 -74 -15 -119 -11 -57 4
-98 21 -415 176 -474 232 -472 230 -472 261 0 23 33 41 395 222 217 108 413
201 435 207 22 5 70 9 108 7 64 -3 82 -11 360 -147z m-1231 -453 c358 -171
706 -350 735 -378 64 -62 64 -55 61 -653 l-3 -540 -27 -13 c-31 -14 -47 -9
-153 51 -33 19 -193 107 -355 197 -162 89 -313 175 -335 189 -46 30 -80 78
-95 130 -6 22 -10 231 -10 533 l0 497 26 20 c15 12 30 21 35 21 5 0 59 -24
121 -54z m1852 33 l26 -20 0 -497 c0 -312 -4 -511 -10 -534 -25 -88 -51 -108
-415 -310 -511 -284 -511 -284 -544 -244 -9 10 -12 166 -11 551 0 498 1 540
18 579 26 57 81 102 187 151 49 24 227 111 394 194 167 83 310 151 316 151 7
0 24 -9 39 -21z"/>
<path d="M1708 2561 c-74 -24 -107 -63 -99 -116 4 -29 17 -41 66 -64 81 -38
219 -24 270 27 46 46 28 105 -43 142 -30 15 -158 22 -194 11z"/>
<path d="M911 2111 c-40 -42 -46 -79 -26 -148 19 -66 90 -146 139 -159 41 -10
89 17 111 62 15 32 16 44 6 90 -22 95 -89 172 -161 181 -35 5 -43 2 -69 -26z"/>
<path d="M1164 1677 c-61 -53 -35 -200 49 -272 67 -58 129 -55 167 7 28 45 25
92 -9 164 -53 112 -143 156 -207 101z"/>
<path d="M1419 1232 c-63 -57 -44 -184 40 -266 47 -45 87 -58 129 -41 58 25
78 104 45 187 -33 86 -98 148 -155 148 -16 0 -41 -12 -59 -28z"/>
<path d="M2554 2112 c-81 -59 -124 -198 -80 -264 36 -54 109 -57 165 -5 95 88
114 231 37 278 -43 26 -76 24 -122 -9z"/>
<path d="M2091 1883 c-63 -12 -141 -135 -141 -222 0 -41 29 -94 61 -111 54
-29 132 20 178 111 50 100 36 185 -34 215 -19 8 -36 13 -37 13 -2 -1 -14 -4
-27 -6z"/>
<path d="M2575 1512 c-83 -51 -138 -168 -116 -243 16 -54 55 -82 106 -76 88
12 183 168 156 258 -21 71 -85 98 -146 61z"/>
<path d="M2075 1248 c-96 -53 -153 -195 -110 -278 19 -36 43 -50 89 -50 100 0
204 198 151 288 -29 48 -85 65 -130 40z"/>
</g>
</svg>
